<svg width="41" height="41" viewBox="0 0 41 41" fill="none" xmlns="http://www.w3.org/2000/svg">
<rect x="0.149902" y="0.831055" width="39.9722" height="39.9722" rx="19.9861" fill="#091133"/>
<path d="M27.1894 12.4904H13.0825C12.924 12.4881 12.7665 12.5172 12.6192 12.5759C12.4718 12.6345 12.3375 12.7216 12.2238 12.8322C12.1101 12.9428 12.0194 13.0747 11.9567 13.2204C11.894 13.366 11.8606 13.5226 11.8584 13.6812V27.9546C11.8606 28.1132 11.894 28.2698 11.9567 28.4155C12.0194 28.5611 12.1101 28.693 12.2238 28.8036C12.3375 28.9142 12.4718 29.0013 12.6192 29.0599C12.7665 29.1186 12.924 29.1477 13.0825 29.1455H27.1894C27.348 29.1477 27.5054 29.1186 27.6528 29.0599C27.8001 29.0013 27.9345 28.9142 28.0482 28.8036C28.1618 28.693 28.2526 28.5611 28.3153 28.4155C28.378 28.2698 28.4114 28.1132 28.4136 27.9546V13.6812C28.4114 13.5226 28.378 13.366 28.3153 13.2204C28.2526 13.0747 28.1618 12.9428 28.0482 12.8322C27.9345 12.7216 27.8001 12.6345 27.6528 12.5759C27.5054 12.5172 27.348 12.4881 27.1894 12.4904ZM16.8799 26.4307H14.3816V18.9359H16.8799V26.4307ZM15.6308 17.8866C15.2862 17.8866 14.9558 17.7497 14.7122 17.5061C14.4685 17.2625 14.3317 16.932 14.3317 16.5875C14.3317 16.243 14.4685 15.9125 14.7122 15.6689C14.9558 15.4253 15.2862 15.2884 15.6308 15.2884C15.8137 15.2677 15.999 15.2858 16.1745 15.3416C16.3499 15.3974 16.5116 15.4897 16.649 15.6123C16.7863 15.735 16.8962 15.8852 16.9714 16.0533C17.0466 16.2213 17.0855 16.4034 17.0855 16.5875C17.0855 16.7716 17.0466 16.9537 16.9714 17.1217C16.8962 17.2898 16.7863 17.4401 16.649 17.5627C16.5116 17.6853 16.3499 17.7776 16.1745 17.8334C15.999 17.8892 15.8137 17.9074 15.6308 17.8866ZM25.8903 26.4307H23.3921V22.4085C23.3921 21.4008 23.034 20.743 22.1263 20.743C21.8453 20.745 21.5718 20.8331 21.3425 20.9954C21.1132 21.1577 20.9392 21.3864 20.8438 21.6507C20.7787 21.8464 20.7504 22.0525 20.7605 22.2586V26.4223H18.2623C18.2623 26.4223 18.2623 19.6104 18.2623 18.9275H20.7605V19.9851C20.9875 19.5913 21.3176 19.2669 21.7153 19.0468C22.1129 18.8267 22.5631 18.7192 23.0173 18.736C24.6828 18.736 25.8903 19.8103 25.8903 22.117V26.4307Z" fill="white"/>
</svg>
