<svg width="24" height="25" viewBox="0 0 24 25" fill="none" xmlns="http://www.w3.org/2000/svg">
<path d="M16.0083 3.62604L15.2896 3.84851C15.2145 3.60443 15.1037 3.30457 14.9457 3.00335C14.4363 2.03182 13.6908 1.51755 12.7896 1.51624H12.7865C12.7241 1.51624 12.6618 1.52215 12.5995 1.52777C12.5733 1.49575 12.5461 1.46451 12.518 1.43407C12.1257 1.01412 11.6219 0.809554 11.0188 0.827226C9.85474 0.860601 8.69599 1.70116 7.75614 3.19394C7.09455 4.2446 6.59196 5.56441 6.44899 6.58596C5.11268 6.99977 4.17766 7.28932 4.15746 7.2957C3.48293 7.50738 3.46174 7.52857 3.37328 8.1641C3.3063 8.64523 1.5415 22.2937 1.5415 22.2937L16.1856 24.8262V3.59609C16.1133 3.60068 16.0488 3.61413 16.0083 3.62604ZM12.6268 4.67299L10.1572 5.43771C10.3961 4.52369 10.8484 3.61371 11.4042 3.01746C11.611 2.7957 11.9002 2.54824 12.2426 2.40691C12.5648 3.0783 12.6346 4.03005 12.6268 4.67299ZM11.0412 1.6017C11.3145 1.59598 11.5447 1.65593 11.7412 1.7853C11.4268 1.94852 11.1227 2.18323 10.8374 2.48913C10.0981 3.28226 9.53177 4.51371 9.30593 5.70129L7.2776 6.32937C7.67763 4.4591 9.24475 1.65335 11.0412 1.6017ZM8.77633 12.2529C8.85499 13.4987 12.1323 13.7709 12.3166 16.6888C12.4615 18.9845 11.0989 20.5548 9.13554 20.6788C6.77946 20.8276 5.48214 19.4374 5.48214 19.4374L5.98136 17.3133C5.98136 17.3133 7.28693 18.2984 8.33205 18.2324C9.01469 18.1893 9.25868 17.6341 9.23388 17.2414C9.13127 15.6163 6.46253 15.7121 6.29393 13.0418C6.15203 10.7945 7.62771 8.51782 10.8839 8.31223C12.1386 8.23301 12.781 8.55335 12.781 8.55335L12.0363 11.3389C12.0363 11.3389 11.2058 10.9607 10.2211 11.0228C8.77722 11.1139 8.76189 12.0247 8.77633 12.2529ZM13.4006 4.43341C13.3921 3.84401 13.3217 3.02416 13.0471 2.31546C13.9302 2.4828 14.3651 3.48209 14.5486 4.07796L13.4006 4.43341ZM16.6698 24.7683L22.7449 23.2583C22.7449 23.2583 20.1293 5.57384 20.1127 5.45257C20.0961 5.33126 19.9898 5.26418 19.9022 5.25687C19.8146 5.24955 18.1044 5.22354 18.1044 5.22354C18.1044 5.22354 17.0616 4.2108 16.6698 3.82769V24.7683H16.6698Z" fill="#091133"/>
</svg>
