<svg width="41" height="41" viewBox="0 0 41 41" fill="none" xmlns="http://www.w3.org/2000/svg">
<rect x="0.116699" y="0.831055" width="39.9722" height="39.9722" rx="19.9861" fill="#091133"/>
<path d="M28.4305 15.6546C27.8045 15.9262 27.1426 16.1057 26.4652 16.1876C27.1798 15.7607 27.7154 15.089 27.9725 14.2973C27.3009 14.697 26.5658 14.9787 25.799 15.13C25.2865 14.5742 24.604 14.2042 23.8585 14.0781C23.1131 13.952 22.3468 14.0769 21.68 14.4332C21.0132 14.7894 20.4835 15.357 20.1739 16.0467C19.8644 16.7365 19.7926 17.5095 19.9697 18.2445C18.6118 18.1758 17.2836 17.8223 16.0713 17.2068C14.859 16.5913 13.7897 15.7277 12.9329 14.672C12.6324 15.1968 12.4745 15.7911 12.4749 16.3958C12.4738 16.9574 12.6117 17.5105 12.8761 18.006C13.1405 18.5014 13.5234 18.9238 13.9905 19.2355C13.4475 19.2207 12.9162 19.075 12.4416 18.8108V18.8524C12.4457 19.6393 12.7214 20.4006 13.2221 21.0076C13.7229 21.6145 14.4179 22.0299 15.1897 22.1834C14.8926 22.2739 14.5842 22.3215 14.2737 22.325C14.0587 22.3225 13.8443 22.303 13.6324 22.2667C13.8522 22.9436 14.2775 23.5351 14.8492 23.959C15.4208 24.3829 16.1104 24.618 16.8219 24.6317C15.6204 25.5771 14.137 26.0931 12.6081 26.0974C12.3298 26.0983 12.0516 26.0816 11.7754 26.0474C13.3363 27.0553 15.1554 27.5903 17.0134 27.588C18.2956 27.6013 19.5676 27.359 20.7551 26.8753C21.9426 26.3915 23.0218 25.6759 23.9296 24.7704C24.8375 23.8649 25.5558 22.7875 26.0426 21.6013C26.5294 20.415 26.775 19.1437 26.765 17.8614C26.765 17.7199 26.765 17.57 26.765 17.4201C27.4184 16.9328 27.982 16.3354 28.4305 15.6546Z" fill="white"/>
</svg>
