<svg width="41" height="41" viewBox="0 0 41 41" fill="none" xmlns="http://www.w3.org/2000/svg">
<rect x="0.0830078" y="0.831055" width="39.9722" height="39.9722" rx="19.9861" fill="#091133"/>
<g clip-path="url(#clip0_108_1349)">
<path d="M29.2293 18.91C29.2705 17.7181 29.0098 16.535 28.4715 15.4708C28.1063 15.0341 27.5994 14.7394 27.0392 14.638C24.7221 14.4278 22.3953 14.3416 20.069 14.3798C17.7512 14.3398 15.4328 14.4232 13.1238 14.6297C12.6673 14.7127 12.2449 14.9268 11.908 15.2459C11.1585 15.9371 11.0753 17.1196 10.992 18.1189C10.8712 19.9156 10.8712 21.7184 10.992 23.5152C11.0161 24.0776 11.0998 24.6359 11.2418 25.1807C11.3422 25.6013 11.5454 25.9904 11.8331 26.3132C12.1722 26.6492 12.6045 26.8755 13.0739 26.9628C14.8692 27.1844 16.6782 27.2762 18.4868 27.2376C21.4014 27.2792 23.958 27.2376 26.9809 27.0044C27.4618 26.9225 27.9062 26.6959 28.255 26.3549C28.4881 26.1216 28.6623 25.8361 28.763 25.5221C29.0608 24.6083 29.2071 23.6518 29.196 22.6907C29.2293 22.2244 29.2293 19.4097 29.2293 18.91ZM18.187 23.1904V18.0356L23.1169 20.6255C21.7345 21.3916 19.9108 22.2577 18.187 23.1904Z" fill="white"/>
</g>
<defs>
<clipPath id="clip0_108_1349">
<rect width="19.9861" height="19.9861" fill="white" transform="translate(10.0762 10.8242)"/>
</clipPath>
</defs>
</svg>
